<svg width="90" height="91" viewBox="0 0 90 91" fill="none" xmlns="http://www.w3.org/2000/svg">
<rect width="90" height="90" rx="6" fill="#292929"/>
<path d="M12.5135 80V35.2727H26.7528V80H12.5135ZM19.6477 30.0604C17.6482 30.0604 15.9302 29.4003 14.4936 28.0803C13.0571 26.7408 12.3388 25.1295 12.3388 23.2464C12.3388 21.3828 13.0571 19.791 14.4936 18.4709C15.9302 17.1314 17.6482 16.4616 19.6477 16.4616C21.6667 16.4616 23.3847 17.1314 24.8018 18.4709C26.2384 19.791 26.9567 21.3828 26.9567 23.2464C26.9567 25.1295 26.2384 26.7408 24.8018 28.0803C23.3847 29.4003 21.6667 30.0604 19.6477 30.0604ZM50.0556 54.4915V80H35.8162V35.2727H49.3567V43.4844H49.8517C50.8418 40.7472 52.5307 38.602 54.9185 37.049C57.3063 35.4766 60.1503 34.6903 63.4505 34.6903C66.5953 34.6903 69.3229 35.3989 71.633 36.816C73.9625 38.2138 75.7679 40.1745 77.0492 42.6982C78.3498 45.2024 78.9905 48.1338 78.9711 51.4922V80H64.7317V54.2876C64.7511 51.8028 64.1202 49.8615 62.839 48.4638C61.5771 47.0661 59.8203 46.3672 57.5684 46.3672C56.0736 46.3672 54.7535 46.6972 53.6081 47.3572C52.4822 47.9979 51.6086 48.92 50.9874 50.1236C50.3856 51.3272 50.075 52.7831 50.0556 54.4915Z" fill="white"/>
</svg>
